<svg id="Group_457" data-name="Group 457" xmlns="http://www.w3.org/2000/svg" width="332.474" height="47" viewBox="0 0 332.474 47">
  <g id="Group_455" data-name="Group 455" transform="translate(98.665 6.303)">
    <path id="Path_1672" data-name="Path 1672" d="M198.8,34.391V13.1h7.941a12.15,12.15,0,0,1,4.616.844,9.45,9.45,0,0,1,3.325,2.283,9.21,9.21,0,0,1,1.985,3.375,12.59,12.59,0,0,1,.695,4.119,12.028,12.028,0,0,1-.744,4.367,9.541,9.541,0,0,1-2.134,3.375,9.12,9.12,0,0,1-3.375,2.134,12.219,12.219,0,0,1-4.367.744H198.8Zm13.5-10.671a8.526,8.526,0,0,0-.4-2.581,5.522,5.522,0,0,0-1.092-1.985,5.161,5.161,0,0,0-1.787-1.29,6,6,0,0,0-2.382-.447h-3.027V30.074h3.027a5.25,5.25,0,0,0,2.382-.5,4.214,4.214,0,0,0,1.737-1.34,6.392,6.392,0,0,0,1.092-1.985A6.194,6.194,0,0,0,212.3,23.721Z" transform="translate(-198.8 -12.901)" fill="#fff"/>
    <path id="Path_1673" data-name="Path 1673" d="M256.889,30.074v4.318H242V13.1h14.691v4.318h-9.777v4.119H255.3v3.97h-8.388v4.516h9.976Z" transform="translate(-220.56 -12.901)" fill="#fff"/>
    <path id="Path_1674" data-name="Path 1674" d="M288.343,19.152a1.605,1.605,0,0,0-.645-.447c-.347-.2-.794-.447-1.34-.695a14.962,14.962,0,0,0-1.787-.645,6.483,6.483,0,0,0-1.936-.248c-1.737,0-2.63.6-2.63,1.787a1.386,1.386,0,0,0,.3.893,2.361,2.361,0,0,0,.844.645,10.164,10.164,0,0,0,1.39.546c.546.149,1.191.347,1.936.546,1.042.3,1.936.6,2.73.893a8.584,8.584,0,0,1,2.084,1.241,6.033,6.033,0,0,1,1.34,1.787,6.416,6.416,0,0,1,.447,2.531,6.205,6.205,0,0,1-.695,3.027A5.324,5.324,0,0,1,288.591,33a7.259,7.259,0,0,1-2.531,1.092,11.658,11.658,0,0,1-2.978.347,17.021,17.021,0,0,1-4.765-.744,17.921,17.921,0,0,1-2.283-.844A13.249,13.249,0,0,1,274,31.758l2.134-4.268a3.846,3.846,0,0,0,.794.546,14.113,14.113,0,0,0,3.822,1.588,9.92,9.92,0,0,0,2.432.347c1.737,0,2.581-.546,2.581-1.588a1.386,1.386,0,0,0-.4-.993,3.186,3.186,0,0,0-1.092-.695,14.839,14.839,0,0,0-1.638-.6c-.645-.2-1.29-.4-2.035-.6a15.854,15.854,0,0,1-2.531-.993,8,8,0,0,1-1.787-1.191,4.9,4.9,0,0,1-1.042-1.588,5.4,5.4,0,0,1-.347-2.084,6.411,6.411,0,0,1,.645-2.978,6.626,6.626,0,0,1,1.687-2.184,7.047,7.047,0,0,1,2.482-1.34,9.921,9.921,0,0,1,3.027-.447,10.518,10.518,0,0,1,2.184.2,16.135,16.135,0,0,1,2.084.546,10.143,10.143,0,0,1,1.836.744c.546.3,1.092.546,1.588.844Z" transform="translate(-236.678 -12.7)" fill="#fff"/>
    <path id="Path_1675" data-name="Path 1675" d="M329.239,30.074v4.318H314.3V13.1h14.691v4.318h-9.777v4.119h8.338v3.97h-8.388v4.516h10.075Z" transform="translate(-256.977 -12.901)" fill="#fff"/>
    <path id="Path_1676" data-name="Path 1676" d="M355.313,22.232V34.391H350.4V13.1h3.822l9.926,12.507V13.1h4.913V34.391h-3.97Z" transform="translate(-275.16 -12.901)" fill="#fff"/>
    <path id="Path_1677" data-name="Path 1677" d="M397.111,13.1l5.013,15.088L407.087,13.1h5.162l-8.09,21.291h-4.119L391.9,13.15h5.211Z" transform="translate(-296.064 -12.901)" fill="#fff"/>
    <path id="Path_1678" data-name="Path 1678" d="M443.322,34.389A9.507,9.507,0,0,1,439,33.446a10.862,10.862,0,0,1-3.325-2.432,10.43,10.43,0,0,1-2.134-3.474,11.1,11.1,0,0,1-.744-4.02,10.192,10.192,0,0,1,.794-4.02,11.343,11.343,0,0,1,2.233-3.424,10.938,10.938,0,0,1,3.375-2.382,10.116,10.116,0,0,1,4.268-.893,9.507,9.507,0,0,1,4.318.943,10.862,10.862,0,0,1,3.325,2.432,11.923,11.923,0,0,1,2.134,3.474,11.038,11.038,0,0,1,.744,3.97,10.192,10.192,0,0,1-.794,4.02,11.2,11.2,0,0,1-2.184,3.424,10.381,10.381,0,0,1-3.375,2.382A9.8,9.8,0,0,1,443.322,34.389Zm-5.509-10.77A7.913,7.913,0,0,0,438.16,26a7.168,7.168,0,0,0,1.042,2.035,4.92,4.92,0,0,0,1.737,1.439,5.264,5.264,0,0,0,2.382.546,5.326,5.326,0,0,0,2.432-.546,5.645,5.645,0,0,0,1.737-1.489,6.843,6.843,0,0,0,1.042-2.084,7.383,7.383,0,0,0,.347-2.333,7.913,7.913,0,0,0-.347-2.382,6.2,6.2,0,0,0-1.092-2.035,5.238,5.238,0,0,0-4.119-1.936,5.326,5.326,0,0,0-2.432.546,4.92,4.92,0,0,0-1.737,1.439,7.168,7.168,0,0,0-1.042,2.035A9.79,9.79,0,0,0,437.813,23.619Z" transform="translate(-316.665 -12.75)" fill="#fff"/>
    <path id="Path_1679" data-name="Path 1679" d="M481.1,34.391V13.1h4.913V30.024h10.274v4.367Z" transform="translate(-340.993 -12.901)" fill="#fff"/>
    <path id="Path_1680" data-name="Path 1680" d="M510.611,13.1l5.013,15.088L520.587,13.1h5.162l-8.09,21.291h-4.119L505.4,13.15h5.211Z" transform="translate(-353.233 -12.901)" fill="#fff"/>
    <path id="Path_1681" data-name="Path 1681" d="M565.239,30.074v4.318H550.3V13.1h14.691v4.318h-9.777v4.119H563.6v3.97h-8.388v4.516h10.025Z" transform="translate(-375.849 -12.901)" fill="#fff"/>
    <path id="Path_1682" data-name="Path 1682" d="M611.643,19.152a1.606,1.606,0,0,0-.645-.447c-.347-.2-.794-.447-1.34-.695a14.96,14.96,0,0,0-1.787-.645,6.483,6.483,0,0,0-1.936-.248c-1.737,0-2.63.6-2.63,1.787a1.386,1.386,0,0,0,.3.893,2.361,2.361,0,0,0,.844.645,10.161,10.161,0,0,0,1.39.546c.546.149,1.191.347,1.936.546,1.042.3,1.936.6,2.73.893a8.584,8.584,0,0,1,2.084,1.241,6.034,6.034,0,0,1,1.34,1.787,6.416,6.416,0,0,1,.447,2.531,6.2,6.2,0,0,1-.695,3.027A5.324,5.324,0,0,1,611.891,33a7.259,7.259,0,0,1-2.531,1.092,11.659,11.659,0,0,1-2.978.347,17.021,17.021,0,0,1-4.765-.744,17.921,17.921,0,0,1-2.283-.844,13.25,13.25,0,0,1-2.035-1.092l2.134-4.268a3.847,3.847,0,0,0,.794.546,14.112,14.112,0,0,0,3.822,1.588,9.92,9.92,0,0,0,2.432.347c1.737,0,2.581-.546,2.581-1.588a1.386,1.386,0,0,0-.4-.993,3.187,3.187,0,0,0-1.092-.695,14.845,14.845,0,0,0-1.638-.6c-.645-.2-1.29-.4-2.035-.6a15.855,15.855,0,0,1-2.531-.993,8,8,0,0,1-1.787-1.191,4.9,4.9,0,0,1-1.042-1.588,5.4,5.4,0,0,1-.347-2.084,6.411,6.411,0,0,1,.645-2.978,6.626,6.626,0,0,1,1.688-2.184,7.046,7.046,0,0,1,2.481-1.34,9.922,9.922,0,0,1,3.027-.447,10.518,10.518,0,0,1,2.184.2,16.135,16.135,0,0,1,2.084.546,10.146,10.146,0,0,1,1.836.744c.546.3,1.092.546,1.588.844Z" transform="translate(-399.523 -12.7)" fill="#fff"/>
    <path id="Path_1683" data-name="Path 1683" d="M637.6,34.391V13.1h9.082a5.74,5.74,0,0,1,2.779.645,7.214,7.214,0,0,1,2.184,1.638,8.445,8.445,0,0,1,1.439,2.283,6.892,6.892,0,0,1,.05,5.261,7.612,7.612,0,0,1-1.39,2.283,6.3,6.3,0,0,1-2.134,1.638,6.5,6.5,0,0,1-2.779.6h-4.318v6.948Zm4.913-11.167h4.02a1.833,1.833,0,0,0,1.489-.744,3.467,3.467,0,0,0,.645-2.184,3.36,3.36,0,0,0-.2-1.29,2.7,2.7,0,0,0-.546-.893,2.073,2.073,0,0,0-.745-.546,2.52,2.52,0,0,0-.844-.149h-3.822v5.807Z" transform="translate(-419.822 -12.901)" fill="#fff"/>
  </g>
  <g id="Group_456" data-name="Group 456" transform="translate(97.772 33.649)">
    <path id="Path_1684" data-name="Path 1684" d="M202.608,79.314a4.97,4.97,0,0,1-2.283-.5,5.892,5.892,0,0,1-1.787-1.29,5.44,5.44,0,0,1-1.141-1.836,6.255,6.255,0,0,1-.4-2.134,5.546,5.546,0,0,1,.447-2.184,6.5,6.5,0,0,1,1.191-1.836,5.034,5.034,0,0,1,1.787-1.241,5.7,5.7,0,0,1,2.283-.5,4.97,4.97,0,0,1,2.283.5,5.892,5.892,0,0,1,1.787,1.29,5.44,5.44,0,0,1,1.141,1.836,6.255,6.255,0,0,1,.4,2.134,5.546,5.546,0,0,1-.447,2.184,6.5,6.5,0,0,1-1.191,1.836,5.892,5.892,0,0,1-1.787,1.29A5.678,5.678,0,0,1,202.608,79.314Zm-2.978-5.757a3.888,3.888,0,0,0,.2,1.29,3.752,3.752,0,0,0,.546,1.092,2.34,2.34,0,0,0,.943.744,2.748,2.748,0,0,0,1.29.3,2.611,2.611,0,0,0,1.29-.3,2.454,2.454,0,0,0,.943-.794,3.226,3.226,0,0,0,.546-1.092,5.388,5.388,0,0,0,.2-1.241,3.888,3.888,0,0,0-.2-1.29,2.926,2.926,0,0,0-.6-1.092,2.856,2.856,0,0,0-.943-.744,2.945,2.945,0,0,0-2.581,0,2.882,2.882,0,0,0-.943.794,2.831,2.831,0,0,0-.546,1.092A10.575,10.575,0,0,0,199.63,73.557Z" transform="translate(-197 -67.8)" fill="#65af53"/>
    <path id="Path_1685" data-name="Path 1685" d="M239.63,76.437a2.748,2.748,0,0,1-.3,1.29,2.885,2.885,0,0,1-.844.893,4.078,4.078,0,0,1-1.241.546,6.754,6.754,0,0,1-1.489.2H230.2V68h6.3a2.7,2.7,0,0,1,1.092.248,2.525,2.525,0,0,1,.794.645,2.159,2.159,0,0,1,.5.943,3.865,3.865,0,0,1,.2,1.042,3.378,3.378,0,0,1-.4,1.539,2.448,2.448,0,0,1-1.241,1.092,3.056,3.056,0,0,1,1.539,1.042A2.442,2.442,0,0,1,239.63,76.437Zm-6.75-6.2v2.333h2.581a1.01,1.01,0,0,0,.744-.3,1.062,1.062,0,0,0,.347-.893,1.091,1.091,0,0,0-.3-.844.98.98,0,0,0-.695-.3ZM237,75.891a1.386,1.386,0,0,0-.3-.893.893.893,0,0,0-.744-.347H232.93v2.482h2.928a1.022,1.022,0,0,0,.844-.347A1.6,1.6,0,0,0,237,75.891Z" transform="translate(-213.723 -67.901)" fill="#65af53"/>
    <path id="Path_1686" data-name="Path 1686" d="M253.97,68h2.382l4.169,11.365h-2.68l-.893-2.531h-3.524l-.844,2.531H249.9Zm2.531,7-1.34-4.02L253.821,75Z" transform="translate(-223.646 -67.901)" fill="#65af53"/>
    <path id="Path_1687" data-name="Path 1687" d="M276.13,72.864v6.5H273.5V68h2.035l5.31,6.7V68h2.63V79.365h-2.134Z" transform="translate(-235.533 -67.901)" fill="#65af53"/>
    <path id="Path_1688" data-name="Path 1688" d="M296.7,73.458a5.926,5.926,0,0,1,.4-2.035,5.44,5.44,0,0,1,1.141-1.836,5.892,5.892,0,0,1,1.787-1.29,5.25,5.25,0,0,1,2.382-.5,5.5,5.5,0,0,1,2.779.695,4.017,4.017,0,0,1,1.737,1.787l-2.035,1.39a2.782,2.782,0,0,0-.5-.744,3.185,3.185,0,0,0-.645-.5,4.366,4.366,0,0,0-.744-.248,3.756,3.756,0,0,0-.744-.05,2.611,2.611,0,0,0-1.29.3,2.454,2.454,0,0,0-.943.794,2.83,2.83,0,0,0-.546,1.092,4.988,4.988,0,0,0-.2,1.241,3.7,3.7,0,0,0,.2,1.29,3.852,3.852,0,0,0,.6,1.092,2.731,2.731,0,0,0,.943.744,2.549,2.549,0,0,0,1.241.3,3.832,3.832,0,0,0,.744-.1,4.367,4.367,0,0,0,.744-.248,2.047,2.047,0,0,0,.645-.5,1.869,1.869,0,0,0,.447-.744l2.134,1.241a4.1,4.1,0,0,1-.744,1.141,6.164,6.164,0,0,1-1.141.844,4.655,4.655,0,0,1-1.39.5,7.7,7.7,0,0,1-1.439.2,4.97,4.97,0,0,1-2.283-.5,6.033,6.033,0,0,1-1.787-1.34,5.652,5.652,0,0,1-1.141-1.886A6.209,6.209,0,0,1,296.7,73.458Z" transform="translate(-247.218 -67.8)" fill="#65af53"/>
    <path id="Path_1689" data-name="Path 1689" d="M324.308,79.314a4.97,4.97,0,0,1-2.283-.5,5.892,5.892,0,0,1-1.787-1.29,5.44,5.44,0,0,1-1.141-1.836,6.254,6.254,0,0,1-.4-2.134,5.546,5.546,0,0,1,.447-2.184,6.5,6.5,0,0,1,1.191-1.836,5.034,5.034,0,0,1,1.787-1.241,5.7,5.7,0,0,1,2.283-.5,4.97,4.97,0,0,1,2.283.5,5.892,5.892,0,0,1,1.787,1.29,5.44,5.44,0,0,1,1.142,1.836,6.255,6.255,0,0,1,.4,2.134,5.546,5.546,0,0,1-.447,2.184,6.5,6.5,0,0,1-1.191,1.836,5.281,5.281,0,0,1-4.07,1.737Zm-2.978-5.757a3.889,3.889,0,0,0,.2,1.29,3.751,3.751,0,0,0,.546,1.092,2.339,2.339,0,0,0,.943.744,2.748,2.748,0,0,0,1.29.3,2.611,2.611,0,0,0,1.29-.3,2.454,2.454,0,0,0,.943-.794,3.226,3.226,0,0,0,.546-1.092,5.385,5.385,0,0,0,.2-1.241,3.887,3.887,0,0,0-.2-1.29,2.925,2.925,0,0,0-.6-1.092,2.856,2.856,0,0,0-.943-.744,2.945,2.945,0,0,0-2.581,0,2.882,2.882,0,0,0-.943.794,2.83,2.83,0,0,0-.546,1.092A5.3,5.3,0,0,0,321.33,73.557Z" transform="translate(-258.3 -67.8)" fill="#65af53"/>
    <path id="Path_1690" data-name="Path 1690" d="M352,79.365V68h4.219a6.506,6.506,0,0,1,2.482.447,5.034,5.034,0,0,1,1.787,1.241,4.694,4.694,0,0,1,1.092,1.787,6.492,6.492,0,0,1,.347,2.184,6.964,6.964,0,0,1-.4,2.333,4.927,4.927,0,0,1-2.928,2.928,6.965,6.965,0,0,1-2.333.4H352Zm7.246-5.707a4.282,4.282,0,0,0-.2-1.39,3.571,3.571,0,0,0-.6-1.042,2.592,2.592,0,0,0-.943-.695,3.456,3.456,0,0,0-1.241-.248H354.63v6.75h1.638a3.514,3.514,0,0,0,1.29-.248,2.235,2.235,0,0,0,.943-.695A3.276,3.276,0,0,0,359.1,75,10.037,10.037,0,0,0,359.246,73.658Z" transform="translate(-275.073 -67.901)" fill="#65af53"/>
    <path id="Path_1691" data-name="Path 1691" d="M379.408,79.314a4.97,4.97,0,0,1-2.283-.5,5.892,5.892,0,0,1-1.787-1.29,5.439,5.439,0,0,1-1.142-1.836,6.255,6.255,0,0,1-.4-2.134,5.546,5.546,0,0,1,.447-2.184,6.5,6.5,0,0,1,1.191-1.836,5.034,5.034,0,0,1,1.787-1.241,5.7,5.7,0,0,1,2.283-.5,4.97,4.97,0,0,1,2.283.5,5.892,5.892,0,0,1,1.787,1.29,5.439,5.439,0,0,1,1.141,1.836,6.254,6.254,0,0,1,.4,2.134,5.546,5.546,0,0,1-.447,2.184,6.5,6.5,0,0,1-1.191,1.836,5.893,5.893,0,0,1-1.787,1.29A5.678,5.678,0,0,1,379.408,79.314Zm-2.978-5.757a3.888,3.888,0,0,0,.2,1.29,3.753,3.753,0,0,0,.546,1.092,2.34,2.34,0,0,0,.943.744,2.747,2.747,0,0,0,1.29.3,2.611,2.611,0,0,0,1.29-.3,2.454,2.454,0,0,0,.943-.794,3.226,3.226,0,0,0,.546-1.092,5.388,5.388,0,0,0,.2-1.241,3.889,3.889,0,0,0-.2-1.29,2.926,2.926,0,0,0-.6-1.092,2.856,2.856,0,0,0-.943-.744,2.945,2.945,0,0,0-2.581,0,2.882,2.882,0,0,0-.943.794,2.831,2.831,0,0,0-.546,1.092A10.575,10.575,0,0,0,376.43,73.557Z" transform="translate(-286.053 -67.8)" fill="#65af53"/>
    <path id="Path_1692" data-name="Path 1692" d="M415.091,77.033v2.283H407.1V68h7.842v2.283H409.73v2.233H414.2V74.65H409.73v2.432h5.36Z" transform="translate(-302.827 -67.901)" fill="#65af53"/>
    <path id="Path_1693" data-name="Path 1693" d="M435.383,79.365V72.516L432.9,77.479h-1.39l-2.482-4.963v6.8H426.4V68h2.829l2.928,5.956L435.135,68h2.829V79.365Z" transform="translate(-312.548 -67.901)" fill="#65af53"/>
    <path id="Path_1694" data-name="Path 1694" d="M454.2,79.365V68h4.864a3,3,0,0,1,1.489.347,4.169,4.169,0,0,1,1.191.893,3.2,3.2,0,0,1,.744,1.241,3.5,3.5,0,0,1,.3,1.39,4.611,4.611,0,0,1-.248,1.439,3.937,3.937,0,0,1-.744,1.241,3.264,3.264,0,0,1-1.141.844,3.626,3.626,0,0,1-1.489.3H456.88v3.673Zm2.63-5.956h2.134a1.036,1.036,0,0,0,.794-.4,1.631,1.631,0,0,0,.347-1.191,2.93,2.93,0,0,0-.1-.695,1.03,1.03,0,0,0-.3-.5,1.2,1.2,0,0,0-.4-.3,1.449,1.449,0,0,0-.447-.1H456.83Z" transform="translate(-326.551 -67.901)" fill="#65af53"/>
    <path id="Path_1695" data-name="Path 1695" d="M474.3,79.365V68h5.112a3,3,0,0,1,1.489.347,4.17,4.17,0,0,1,1.191.893,4.077,4.077,0,0,1,.794,1.241,3.5,3.5,0,0,1,.3,1.39,3.2,3.2,0,0,1-.149.993,5.288,5.288,0,0,1-.347.943,3.509,3.509,0,0,1-1.39,1.39l2.482,4.219H480.8l-2.184-3.673h-1.737v3.673H474.3Zm2.63-5.956h2.382a.954.954,0,0,0,.794-.447,1.655,1.655,0,0,0,.347-1.142,1.77,1.77,0,0,0-.4-1.142,1.048,1.048,0,0,0-.844-.4h-2.333V73.41Z" transform="translate(-336.675 -67.901)" fill="#65af53"/>
    <path id="Path_1696" data-name="Path 1696" d="M503.891,77.033v2.283H495.9V68h7.842v2.283H498.53v2.233H503V74.65H498.53v2.432h5.36Z" transform="translate(-347.555 -67.901)" fill="#65af53"/>
    <path id="Path_1697" data-name="Path 1697" d="M523.19,77.033v2.283H515.2V68h7.842v2.283H517.83v2.233H522.3V74.65H517.83v2.432h5.36Z" transform="translate(-357.276 -67.901)" fill="#65af53"/>
    <path id="Path_1698" data-name="Path 1698" d="M537.13,72.864v6.5H534.5V68h2.035l5.31,6.7V68h2.63V79.365h-2.134Z" transform="translate(-366.997 -67.901)" fill="#65af53"/>
    <path id="Path_1699" data-name="Path 1699" d="M559,79.365V68h4.219a6.506,6.506,0,0,1,2.482.447,5.034,5.034,0,0,1,1.787,1.241,4.694,4.694,0,0,1,1.092,1.787,6.492,6.492,0,0,1,.347,2.184,6.964,6.964,0,0,1-.4,2.333,4.926,4.926,0,0,1-2.928,2.928,6.965,6.965,0,0,1-2.333.4H559Zm7.246-5.707a4.281,4.281,0,0,0-.2-1.39,3.57,3.57,0,0,0-.6-1.042,2.592,2.592,0,0,0-.943-.695,3.456,3.456,0,0,0-1.241-.248H561.63v6.75h1.638a3.514,3.514,0,0,0,1.29-.248,2.235,2.235,0,0,0,.943-.695A3.276,3.276,0,0,0,566.1,75,5.533,5.533,0,0,0,566.246,73.658Z" transform="translate(-379.338 -67.901)" fill="#65af53"/>
    <path id="Path_1700" data-name="Path 1700" d="M590.091,77.033v2.283H582.1V68h7.842v2.283H584.73v2.233H589.2V74.65H584.73v2.432h5.36Z" transform="translate(-390.973 -67.901)" fill="#65af53"/>
    <path id="Path_1701" data-name="Path 1701" d="M601.4,79.365V68h4.219a6.506,6.506,0,0,1,2.482.447,5.034,5.034,0,0,1,1.787,1.241,4.694,4.694,0,0,1,1.092,1.787,6.492,6.492,0,0,1,.347,2.184,6.964,6.964,0,0,1-.4,2.333A4.926,4.926,0,0,1,608,78.919a6.965,6.965,0,0,1-2.333.4H601.4Zm7.246-5.707a4.281,4.281,0,0,0-.2-1.39,3.57,3.57,0,0,0-.6-1.042,2.592,2.592,0,0,0-.943-.695,3.456,3.456,0,0,0-1.241-.248H604.03v6.75h1.638a3.514,3.514,0,0,0,1.29-.248,2.235,2.235,0,0,0,.943-.695A3.275,3.275,0,0,0,608.5,75,5.533,5.533,0,0,0,608.646,73.658Z" transform="translate(-400.695 -67.901)" fill="#65af53"/>
    <path id="Path_1702" data-name="Path 1702" d="M628.908,79.314a4.97,4.97,0,0,1-2.283-.5,5.892,5.892,0,0,1-1.787-1.29,5.441,5.441,0,0,1-1.142-1.836,6.256,6.256,0,0,1-.4-2.134,5.546,5.546,0,0,1,.447-2.184,6.5,6.5,0,0,1,1.191-1.836,5.034,5.034,0,0,1,1.787-1.241,5.7,5.7,0,0,1,2.283-.5,4.97,4.97,0,0,1,2.283.5,5.892,5.892,0,0,1,1.787,1.29,5.439,5.439,0,0,1,1.141,1.836,6.256,6.256,0,0,1,.4,2.134,5.547,5.547,0,0,1-.447,2.184,6.5,6.5,0,0,1-1.191,1.836,5.893,5.893,0,0,1-1.787,1.29A6.034,6.034,0,0,1,628.908,79.314Zm-2.978-5.757a3.887,3.887,0,0,0,.2,1.29,3.753,3.753,0,0,0,.546,1.092,2.339,2.339,0,0,0,.943.744,2.747,2.747,0,0,0,1.29.3,2.611,2.611,0,0,0,1.29-.3,2.454,2.454,0,0,0,.943-.794,3.225,3.225,0,0,0,.546-1.092,5.388,5.388,0,0,0,.2-1.241,3.887,3.887,0,0,0-.2-1.29,2.925,2.925,0,0,0-.6-1.092,2.855,2.855,0,0,0-.943-.744,2.944,2.944,0,0,0-2.581,0,2.881,2.881,0,0,0-.943.794,2.83,2.83,0,0,0-.546,1.092A5.3,5.3,0,0,0,625.93,73.557Z" transform="translate(-411.726 -67.8)" fill="#65af53"/>
    <path id="Path_1703" data-name="Path 1703" d="M649,79.365V68h5.112a3,3,0,0,1,1.489.347,4.17,4.17,0,0,1,1.191.893,4.076,4.076,0,0,1,.794,1.241,3.5,3.5,0,0,1,.3,1.39,3.2,3.2,0,0,1-.149.993,5.293,5.293,0,0,1-.347.943A3.509,3.509,0,0,1,656,75.2l2.482,4.219H655.5l-2.184-3.673h-1.737v3.673H649Zm2.63-5.956h2.382a.954.954,0,0,0,.794-.447,1.655,1.655,0,0,0,.347-1.142,1.77,1.77,0,0,0-.4-1.142,1.048,1.048,0,0,0-.844-.4h-2.333V73.41Z" transform="translate(-424.671 -67.901)" fill="#65af53"/>
  </g>
  <path id="Path_1704" data-name="Path 1704" d="M58.648,10.7l-18.115.05h0L24.8,28.964l13.4-.05h0L53.784,47.029H71.5L88.525,28.418l-14.393.05h0Z" transform="translate(-12.492 -5.39)" fill="none"/>
  <path id="Path_1705" data-name="Path 1705" d="M111.165,22.909l-2.68,5.559h0L93,10.7h7.494Z" transform="translate(-46.844 -5.39)" fill="#4758a2"/>
  <path id="Path_1706" data-name="Path 1706" d="M118.9,65.011l2.531,5.31h0L143.318,46.4h-7.395Z" transform="translate(-59.889 -23.371)" fill="#65af53"/>
  <path id="Path_1707" data-name="Path 1707" d="M49.08,47.4,46.4,52.959h0L57.219,65.565l7.445-.05Z" transform="translate(-23.371 -23.875)" fill="#4758a2"/>
  <path id="Path_1708" data-name="Path 1708" d="M93.363,83.9H75.645l-7.445.05h0l4.566,5.31,23.128-.05h0Z" transform="translate(-34.352 -42.26)" fill="#558a49"/>
  <path id="Path_1709" data-name="Path 1709" d="M53.78,5.36,71.9,5.31h7.494L74.873.1l-.1-.1L51.1.05h0Z" transform="translate(-25.739)" fill="#558a49"/>
  <path id="Path_1710" data-name="Path 1710" d="M32.927,5.41h0L30.247.1h0L9.7,23.625h7.494Z" transform="translate(-4.886 -0.05)" fill="#65af53"/>
  <path id="Path_1711" data-name="Path 1711" d="M6.7,49.993h0L7.544,49Z" transform="translate(-3.375 -24.681)" fill="#65af53"/>
  <path id="Path_1712" data-name="Path 1712" d="M151.1,35.2l-24.22.05h0l-2.68,5.559h0l14.393-.05h7.395Z" transform="translate(-62.559 -17.73)" fill="#6ea8dc"/>
  <path id="Path_1713" data-name="Path 1713" d="M25.709,47.4h0l-13.4.05H4.814l-.645.744-.844.993L0,53.008l23.029-.05h0Z" transform="translate(0 -23.875)" fill="#6ea8dc"/>
</svg>
